<?xml version="1.0" encoding="utf-8"?>
<svg version="1.1" xmlns:xlink="http://www.w3.org/1999/xlink" width="244px" height="60px" xmlns="http://www.w3.org/2000/svg">
  <defs>
    <mask fill="white" id="clip8">
      <path d="M 9 54.9295774647887  L 9 5.49295774647888  C 8.97058823529412 4.04159683704487  -0.989742352272813 1.33927601947814  1.02521008403363 0.422535211267596  C 2.95230245370882 -0.454231994071875  16.7883549503719 0.422535211267596  19.7352941176471 0.422535211267596  L 233.235294117647 0.422535211267596  C 239.263529411765 0.422535211267596  244 2.65352112676058  244 5.49295774647888  L 244 54.9295774647887  C 244 57.7690140845071  239.263529411765 60  233.235294117647 60  L 19.7352941176471 60  C 13.7070588235294 60  8.97058823529412 57.7690140845071  9 54.9295774647887  Z " fill-rule="evenodd" />
    </mask>
  </defs>
  <g transform="matrix(1 0 0 1 -74 -108 )">
    <path d="M 9 54.9295774647887  L 9 5.49295774647888  C 8.97058823529412 4.04159683704487  -0.989742352272813 1.33927601947814  1.02521008403363 0.422535211267596  C 2.95230245370882 -0.454231994071875  16.7883549503719 0.422535211267596  19.7352941176471 0.422535211267596  L 233.235294117647 0.422535211267596  C 239.263529411765 0.422535211267596  244 2.65352112676058  244 5.49295774647888  L 244 54.9295774647887  C 244 57.7690140845071  239.263529411765 60  233.235294117647 60  L 19.7352941176471 60  C 13.7070588235294 60  8.97058823529412 57.7690140845071  9 54.9295774647887  Z " fill-rule="nonzero" fill="#ffffff" stroke="none" transform="matrix(1 0 0 1 74 108 )" />
    <path d="M 9 54.9295774647887  L 9 5.49295774647888  C 8.97058823529412 4.04159683704487  -0.989742352272813 1.33927601947814  1.02521008403363 0.422535211267596  C 2.95230245370882 -0.454231994071875  16.7883549503719 0.422535211267596  19.7352941176471 0.422535211267596  L 233.235294117647 0.422535211267596  C 239.263529411765 0.422535211267596  244 2.65352112676058  244 5.49295774647888  L 244 54.9295774647887  C 244 57.7690140845071  239.263529411765 60  233.235294117647 60  L 19.7352941176471 60  C 13.7070588235294 60  8.97058823529412 57.7690140845071  9 54.9295774647887  Z " stroke-width="2" stroke="#797979" fill="none" transform="matrix(1 0 0 1 74 108 )" mask="url(#clip8)" />
  </g>
</svg>