<?xml version="1.0" encoding="utf-8"?>
<svg version="1.1" xmlns:xlink="http://www.w3.org/1999/xlink" width="40px" height="50px" xmlns="http://www.w3.org/2000/svg">
  <defs>
    <filter x="328px" y="572px" width="40px" height="50px" filterUnits="userSpaceOnUse" id="filter5">
      <feOffset dx="1" dy="1" in="SourceAlpha" result="shadowOffsetInner" />
      <feGaussianBlur stdDeviation="2.5" in="shadowOffsetInner" result="shadowGaussian" />
      <feComposite in2="shadowGaussian" operator="atop" in="SourceAlpha" result="shadowComposite" />
      <feColorMatrix type="matrix" values="0 0 0 0 0  0 0 0 0 0  0 0 0 0 0  0 0 0 0.698039215686274 0  " in="shadowComposite" />
    </filter>
    <g id="widget6">
      <path d="M 347 615.036928468354  C 341.2 605.40734059591  332.5 599.629587872444  332.5 590  C 332.5 584.985714285714  335.4 576.5  347 576.5  C 358.6 576.5  361.5 584.985714285714  361.5 590  C 361.5 599.629587872444  352.8 605.40734059591  347 615.036928468354  Z " fill-rule="nonzero" fill="#009dd9" stroke="none" />
      <path d="M 347 616  C 341 606  332 600  332 590  C 332 584.8  335 576  347 576  C 359 576  362 584.8  362 590  C 362 600  353 606  347 616  Z M 347 614.073856936707  C 352.6 604.81468119182  361 599.259175744887  361 590  C 361 585.171428571429  358.2 577  347 577  C 335.8 577  333 585.171428571429  333 590  C 333 599.259175744887  341.4 604.81468119182  347 614.073856936707  Z " fill-rule="nonzero" fill="#ffffff" stroke="none" />
    </g>
  </defs>
  <g transform="matrix(1 0 0 1 -328 -572 )">
    <use xlink:href="#widget6" filter="url(#filter5)" />
    <use xlink:href="#widget6" />
  </g>
</svg>