<?xml version="1.0" encoding="utf-8"?>
<svg version="1.1" xmlns:xlink="http://www.w3.org/1999/xlink" width="38px" height="38px" xmlns="http://www.w3.org/2000/svg">
  <g transform="matrix(1 0 0 1 -34 -83 )">
    <path d="M 53 83  C 63.64 83  72 91.36  72 102  C 72 112.64  63.64 121  53 121  C 42.36 121  34 112.64  34 102  C 34 91.36  42.36 83  53 83  Z " fill-rule="nonzero" fill="#ffffff" stroke="none" />
    <path d="M 53 83.5  C 63.36 83.5  71.5 91.64  71.5 102  C 71.5 112.36  63.36 120.5  53 120.5  C 42.64 120.5  34.5 112.36  34.5 102  C 34.5 91.64  42.64 83.5  53 83.5  Z " stroke-width="1" stroke="#797979" fill="none" />
  </g>
</svg>